<svg xmlns="http://www.w3.org/2000/svg" width="340" height="165" viewBox="0 0 340 165" fill="none">
  <style>
    .header { font: 600 14px 'Segoe UI', Ubuntu, Sans-Serif; fill: #58a6ff; }
    .lang-name { font: 400 11px 'Segoe UI', Ubuntu, Sans-Serif; fill: #c9d1d9; }
    .lang-percent { font: 400 11px 'Segoe UI', Ubuntu, Sans-Serif; fill: #8b949e; }
    
    @media (prefers-color-scheme: light) {
      .header { fill: #0969da; }
      .lang-name { fill: #1f2328; }
      .lang-percent { fill: #57606a; }
      rect.bg { fill: #ffffff !important; stroke: #d0d7de !important; }
      rect.progress-bg { fill: #e1e4e8 !important; }
    }
  </style>
  
  <rect class="bg" x="0.5" y="0.5" rx="6" width="339" height="164" fill="#0d1117" stroke="#30363d"/>
  
  <g transform="translate(20, 28)">
    <text class="header">Top Languages</text>
  </g>
  
  <g transform="translate(20, 48)">
    <defs>
      <clipPath id="progress-clip">
        <rect x="0" y="0" width="300" height="8" rx="4"/>
      </clipPath>
    </defs>
    <rect class="progress-bg" x="0" y="0" width="300" height="8" fill="#21262d" rx="4"/>
    <g clip-path="url(#progress-clip)">
      <rect x="0" y="0" width="171.62813717511648" height="8" fill="#3178c6"/><rect x="171.62813717511648" y="0" width="69.53918520210001" height="8" fill="#f1e05a"/><rect x="241.1673223772165" y="0" width="20.907526202434997" height="8" fill="#b07219"/><rect x="262.0748485796515" y="0" width="13.507167883696296" height="8" fill="#663399"/><rect x="275.58201646334777" y="0" width="12.627063828417432" height="8" fill="#3572A5"/><rect x="288.2090802917652" y="0" width="7.159836110923894" height="8" fill="#e34c26"/><rect x="295.3689164026891" y="0" width="3.0308212460277617" height="8" fill="#178600"/><rect x="298.39973764871684" y="0" width="1.600262351283137" height="8" fill="#41b883"/>
    </g>
  </g>
  
  
  <g transform="translate(20, 70)">
    <circle cx="5" cy="5" r="5" fill="#3178c6"/>
    <text class="lang-name" x="14" y="8">TypeScript</text>
    <text class="lang-percent" x="90" y="8">57.2%</text>
  </g>
  <g transform="translate(175, 70)">
    <circle cx="5" cy="5" r="5" fill="#f1e05a"/>
    <text class="lang-name" x="14" y="8">JavaScript</text>
    <text class="lang-percent" x="90" y="8">23.2%</text>
  </g>
  <g transform="translate(20, 88)">
    <circle cx="5" cy="5" r="5" fill="#b07219"/>
    <text class="lang-name" x="14" y="8">Java</text>
    <text class="lang-percent" x="90" y="8">7.0%</text>
  </g>
  <g transform="translate(175, 88)">
    <circle cx="5" cy="5" r="5" fill="#663399"/>
    <text class="lang-name" x="14" y="8">CSS</text>
    <text class="lang-percent" x="90" y="8">4.5%</text>
  </g>
  <g transform="translate(20, 106)">
    <circle cx="5" cy="5" r="5" fill="#3572A5"/>
    <text class="lang-name" x="14" y="8">Python</text>
    <text class="lang-percent" x="90" y="8">4.2%</text>
  </g>
  <g transform="translate(175, 106)">
    <circle cx="5" cy="5" r="5" fill="#e34c26"/>
    <text class="lang-name" x="14" y="8">HTML</text>
    <text class="lang-percent" x="90" y="8">2.4%</text>
  </g>
  <g transform="translate(20, 124)">
    <circle cx="5" cy="5" r="5" fill="#178600"/>
    <text class="lang-name" x="14" y="8">C#</text>
    <text class="lang-percent" x="90" y="8">1.0%</text>
  </g>
  <g transform="translate(175, 124)">
    <circle cx="5" cy="5" r="5" fill="#41b883"/>
    <text class="lang-name" x="14" y="8">Vue</text>
    <text class="lang-percent" x="90" y="8">0.5%</text>
  </g>
</svg>