<svg xmlns="http://www.w3.org/2000/svg" width="340" height="165" viewBox="0 0 340 165" fill="none">
  <style>
    .header { font: 600 14px 'Segoe UI', Ubuntu, Sans-Serif; fill: #0969da; }
    .lang-name { font: 400 11px 'Segoe UI', Ubuntu, Sans-Serif; fill: #1f2328; }
    .lang-percent { font: 400 11px 'Segoe UI', Ubuntu, Sans-Serif; fill: #57606a; }
  </style>
  
  <rect class="bg" x="0.5" y="0.5" rx="6" width="339" height="164" fill="#ffffff" stroke="#d0d7de"/>
  
  <g transform="translate(20, 28)">
    <text class="header">Top Languages</text>
  </g>
  
  <g transform="translate(20, 48)">
    <defs>
      <clipPath id="progress-clip">
        <rect x="0" y="0" width="300" height="8" rx="4"/>
      </clipPath>
    </defs>
    <rect class="progress-bg" x="0" y="0" width="300" height="8" fill="#e1e4e8" rx="4"/>
    <g clip-path="url(#progress-clip)">
      <rect x="0" y="0" width="168.8257760962725" height="8" fill="#3178c6"/><rect x="168.8257760962725" y="0" width="71.05722740992185" height="8" fill="#f1e05a"/><rect x="239.88300350619437" y="0" width="21.363938039073524" height="8" fill="#b07219"/><rect x="261.2469415452679" y="0" width="13.802029707227804" height="8" fill="#663399"/><rect x="275.0489712524957" y="0" width="12.902712957706038" height="8" fill="#3572A5"/><rect x="287.95168421020173" y="0" width="7.316135518026252" height="8" fill="#e34c26"/><rect x="295.267819728228" y="0" width="3.0969841520563812" height="8" fill="#178600"/><rect x="298.3648038802844" y="0" width="1.635196119715653" height="8" fill="#41b883"/>
    </g>
  </g>
  
  
  <g transform="translate(20, 70)">
    <circle cx="5" cy="5" r="5" fill="#3178c6"/>
    <text class="lang-name" x="14" y="8">TypeScript</text>
    <text class="lang-percent" x="90" y="8">56.3%</text>
  </g>
  <g transform="translate(175, 70)">
    <circle cx="5" cy="5" r="5" fill="#f1e05a"/>
    <text class="lang-name" x="14" y="8">JavaScript</text>
    <text class="lang-percent" x="90" y="8">23.7%</text>
  </g>
  <g transform="translate(20, 88)">
    <circle cx="5" cy="5" r="5" fill="#b07219"/>
    <text class="lang-name" x="14" y="8">Java</text>
    <text class="lang-percent" x="90" y="8">7.1%</text>
  </g>
  <g transform="translate(175, 88)">
    <circle cx="5" cy="5" r="5" fill="#663399"/>
    <text class="lang-name" x="14" y="8">CSS</text>
    <text class="lang-percent" x="90" y="8">4.6%</text>
  </g>
  <g transform="translate(20, 106)">
    <circle cx="5" cy="5" r="5" fill="#3572A5"/>
    <text class="lang-name" x="14" y="8">Python</text>
    <text class="lang-percent" x="90" y="8">4.3%</text>
  </g>
  <g transform="translate(175, 106)">
    <circle cx="5" cy="5" r="5" fill="#e34c26"/>
    <text class="lang-name" x="14" y="8">HTML</text>
    <text class="lang-percent" x="90" y="8">2.4%</text>
  </g>
  <g transform="translate(20, 124)">
    <circle cx="5" cy="5" r="5" fill="#178600"/>
    <text class="lang-name" x="14" y="8">C#</text>
    <text class="lang-percent" x="90" y="8">1.0%</text>
  </g>
  <g transform="translate(175, 124)">
    <circle cx="5" cy="5" r="5" fill="#41b883"/>
    <text class="lang-name" x="14" y="8">Vue</text>
    <text class="lang-percent" x="90" y="8">0.5%</text>
  </g>
</svg>