<svg xmlns="http://www.w3.org/2000/svg" width="340" height="165" viewBox="0 0 340 165" fill="none">
  <style>
    .header { font: 600 14px 'Segoe UI', Ubuntu, Sans-Serif; fill: #58a6ff; }
    .lang-name { font: 400 11px 'Segoe UI', Ubuntu, Sans-Serif; fill: #c9d1d9; }
    .lang-percent { font: 400 11px 'Segoe UI', Ubuntu, Sans-Serif; fill: #8b949e; }
    
    @media (prefers-color-scheme: light) {
      .header { fill: #0969da; }
      .lang-name { fill: #1f2328; }
      .lang-percent { fill: #57606a; }
      rect.bg { fill: #ffffff !important; stroke: #d0d7de !important; }
      rect.progress-bg { fill: #e1e4e8 !important; }
    }
  </style>
  
  <rect class="bg" x="0.5" y="0.5" rx="6" width="339" height="164" fill="#0d1117" stroke="#30363d"/>
  
  <g transform="translate(20, 28)">
    <text class="header">Top Languages</text>
  </g>
  
  <g transform="translate(20, 48)">
    <defs>
      <clipPath id="progress-clip">
        <rect x="0" y="0" width="300" height="8" rx="4"/>
      </clipPath>
    </defs>
    <rect class="progress-bg" x="0" y="0" width="300" height="8" fill="#21262d" rx="4"/>
    <g clip-path="url(#progress-clip)">
      <rect x="0" y="0" width="143.75522949940714" height="8" fill="#3178c6"/><rect x="143.75522949940714" y="0" width="88.28311952613889" height="8" fill="#f1e05a"/><rect x="232.03834902554604" y="0" width="26.46925850315011" height="8" fill="#b07219"/><rect x="258.50760752869616" y="0" width="17.061444787311405" height="8" fill="#663399"/><rect x="275.56905231600757" y="0" width="9.552488573106015" height="8" fill="#3572A5"/><rect x="285.1215408891136" y="0" width="9.01543410735231" height="8" fill="#e34c26"/><rect x="294.1369749964659" y="0" width="3.837067583280375" height="8" fill="#178600"/><rect x="297.97404257974625" y="0" width="2.025957420253716" height="8" fill="#41b883"/>
    </g>
  </g>
  
  
  <g transform="translate(20, 70)">
    <circle cx="5" cy="5" r="5" fill="#3178c6"/>
    <text class="lang-name" x="14" y="8">TypeScript</text>
    <text class="lang-percent" x="90" y="8">47.9%</text>
  </g>
  <g transform="translate(175, 70)">
    <circle cx="5" cy="5" r="5" fill="#f1e05a"/>
    <text class="lang-name" x="14" y="8">JavaScript</text>
    <text class="lang-percent" x="90" y="8">29.4%</text>
  </g>
  <g transform="translate(20, 88)">
    <circle cx="5" cy="5" r="5" fill="#b07219"/>
    <text class="lang-name" x="14" y="8">Java</text>
    <text class="lang-percent" x="90" y="8">8.8%</text>
  </g>
  <g transform="translate(175, 88)">
    <circle cx="5" cy="5" r="5" fill="#663399"/>
    <text class="lang-name" x="14" y="8">CSS</text>
    <text class="lang-percent" x="90" y="8">5.7%</text>
  </g>
  <g transform="translate(20, 106)">
    <circle cx="5" cy="5" r="5" fill="#3572A5"/>
    <text class="lang-name" x="14" y="8">Python</text>
    <text class="lang-percent" x="90" y="8">3.2%</text>
  </g>
  <g transform="translate(175, 106)">
    <circle cx="5" cy="5" r="5" fill="#e34c26"/>
    <text class="lang-name" x="14" y="8">HTML</text>
    <text class="lang-percent" x="90" y="8">3.0%</text>
  </g>
  <g transform="translate(20, 124)">
    <circle cx="5" cy="5" r="5" fill="#178600"/>
    <text class="lang-name" x="14" y="8">C#</text>
    <text class="lang-percent" x="90" y="8">1.3%</text>
  </g>
  <g transform="translate(175, 124)">
    <circle cx="5" cy="5" r="5" fill="#41b883"/>
    <text class="lang-name" x="14" y="8">Vue</text>
    <text class="lang-percent" x="90" y="8">0.7%</text>
  </g>
</svg>