<svg xmlns="http://www.w3.org/2000/svg" width="340" height="165" viewBox="0 0 340 165" fill="none">
  <style>
    .header { font: 600 14px 'Segoe UI', Ubuntu, Sans-Serif; fill: #0969da; }
    .stat-label { font: 400 11px 'Segoe UI', Ubuntu, Sans-Serif; fill: #57606a; }
    .stat-value { font: 600 11px 'Segoe UI', Ubuntu, Sans-Serif; fill: #1f2328; }
    .icon { fill: #57606a; }
  </style>
  
  <rect class="bg" x="0.5" y="0.5" rx="6" width="339" height="164" fill="#ffffff" stroke="#d0d7de"/>
  
  <g transform="translate(20, 28)">
    <text class="header">Ricardo Willian's - GitHub Stats</text>
  </g>
  
  <g transform="translate(20, 55)">
    <svg class="icon" viewBox="0 0 16 16" width="14" height="14">
      <path d="M8 .25a.75.75 0 01.673.418l1.882 3.815 4.21.612a.75.75 0 01.416 1.279l-3.046 2.97.719 4.192a.75.75 0 01-1.088.791L8 12.347l-3.766 1.98a.75.75 0 01-1.088-.79l.72-4.194L.818 6.374a.75.75 0 01.416-1.28l4.21-.611L7.327.668A.75.75 0 018 .25z"/>
    </svg>
    <text class="stat-label" x="20" y="11">Stars</text>
    <text class="stat-value" x="135" y="11" text-anchor="end">3</text>
  </g>
  
  <g transform="translate(175, 55)">
    <svg class="icon" viewBox="0 0 16 16" width="14" height="14">
      <path d="M2 2.5A2.5 2.5 0 014.5 0h8.75a.75.75 0 01.75.75v12.5a.75.75 0 01-.75.75h-2.5a.75.75 0 110-1.5h1.75v-2h-8a1 1 0 00-.714 1.7.75.75 0 01-1.072 1.05A2.495 2.495 0 012 11.5v-9zm10.5-1H4.5a1 1 0 00-1 1v6.708A2.486 2.486 0 014.5 9h8V1.5zM5 12.25v3.25a.25.25 0 00.4.2l1.45-1.087a.25.25 0 01.3 0L8.6 15.7a.25.25 0 00.4-.2v-3.25a.25.25 0 00-.25-.25h-3.5a.25.25 0 00-.25.25z"/>
    </svg>
    <text class="stat-label" x="20" y="11">Repositories</text>
    <text class="stat-value" x="145" y="11" text-anchor="end">37</text>
  </g>
  
  <g transform="translate(20, 80)">
    <svg class="icon" viewBox="0 0 16 16" width="14" height="14">
      <path d="M5 5.372v.878c0 .414.336.75.75.75h4.5a.75.75 0 00.75-.75v-.878a2.25 2.25 0 111.5 0v.878a2.25 2.25 0 01-2.25 2.25h-1.5v2.128a2.251 2.251 0 11-1.5 0V8.5h-1.5A2.25 2.25 0 013 6.25v-.878a2.25 2.25 0 111.5 0zM5 3.25a.75.75 0 10-1.5 0 .75.75 0 001.5 0zm6.75.75a.75.75 0 10-.75-.75.75.75 0 00.75.75zM8 12.25a.75.75 0 101.5 0 .75.75 0 00-1.5 0z"/>
    </svg>
    <text class="stat-label" x="20" y="11">Forks</text>
    <text class="stat-value" x="135" y="11" text-anchor="end">1</text>
  </g>
  
  <g transform="translate(175, 80)">
    <svg class="icon" viewBox="0 0 16 16" width="14" height="14">
      <path d="M8.75 1.75a.75.75 0 00-1.5 0V5H4a.75.75 0 000 1.5h3.25v3.25a.75.75 0 001.5 0V6.5H12a.75.75 0 000-1.5H8.75V1.75zM4 13a.75.75 0 000 1.5h8a.75.75 0 000-1.5H4z"/>
    </svg>
    <text class="stat-label" x="20" y="11">Lines changed</text>
    <text class="stat-value" x="145" y="11" text-anchor="end">343,861</text>
  </g>
  
  <g transform="translate(20, 105)">
    <svg class="icon" viewBox="0 0 16 16" width="14" height="14">
      <path d="M11.93 8.5a4.002 4.002 0 01-7.86 0H.75a.75.75 0 010-1.5h3.32a4.002 4.002 0 017.86 0h3.32a.75.75 0 010 1.5h-3.32zm-1.43-.75a2.5 2.5 0 10-5 0 2.5 2.5 0 005 0z"/>
    </svg>
    <text class="stat-label" x="20" y="11">Contributions</text>
    <text class="stat-value" x="135" y="11" text-anchor="end">488</text>
  </g>
  
  <g transform="translate(175, 105)">
    <svg class="icon" viewBox="0 0 16 16" width="14" height="14">
      <path d="M8 2c1.981 0 3.671.992 4.933 2.078 1.27 1.091 2.187 2.345 2.637 3.023a1.62 1.62 0 010 1.798c-.45.678-1.367 1.932-2.637 3.023C11.67 13.008 9.981 14 8 14c-1.981 0-3.671-.992-4.933-2.078C1.797 10.83.88 9.576.43 8.898a1.62 1.62 0 010-1.798c.45-.677 1.367-1.931 2.637-3.022C4.33 2.992 6.019 2 8 2zM1.679 7.932a.12.12 0 000 .136c.411.622 1.241 1.75 2.366 2.717C5.176 11.758 6.527 12.5 8 12.5c1.473 0 2.825-.742 3.955-1.715 1.124-.967 1.954-2.096 2.366-2.717a.12.12 0 000-.136c-.412-.621-1.242-1.75-2.366-2.717C10.824 4.242 9.473 3.5 8 3.5c-1.473 0-2.824.742-3.955 1.715-1.124.967-1.954 2.096-2.366 2.717zM8 10a2 2 0 11-.001-3.999A2 2 0 018 10z"/>
    </svg>
    <text class="stat-label" x="20" y="11">Views (2 weeks)</text>
    <text class="stat-value" x="145" y="11" text-anchor="end">36</text>
  </g>
</svg>